
<svg viewBox="0 0 445 417" fill="none" xmlns="http://www.w3.org/2000/svg">
<path fill-rule="evenodd" clip-rule="evenodd" d="M109.137 261.056C118.195 251.998 120.613 238.453 117.505 226.025C114.619 214.485 113.087 202.407 113.087 189.972C113.087 108.162 179.407 41.8418 261.217 41.8418C343.027 41.8418 409.348 108.162 409.348 189.972C409.348 271.782 343.027 338.103 261.217 338.103C235.28 338.103 210.899 331.436 189.695 319.723C178.343 313.453 163.889 314.15 154.719 323.32L153.537 324.502C148.448 329.591 146.328 336.813 146.328 344.01C146.328 384.142 113.795 416.676 73.6623 416.676C33.5302 416.676 0.996567 384.142 0.996569 344.01C0.996571 303.878 33.5302 271.344 73.6623 271.344C74.6368 271.344 75.6068 271.364 76.572 271.402C88.4087 271.868 100.761 269.432 109.137 261.056Z" fill="url(#paint0_linear_672_1266)"/>
<path d="M287.694 35.4122C287.809 33.9063 289.123 32.7754 290.626 32.9199C311.296 34.907 331.254 41.5772 348.979 52.4387C366.705 63.3001 381.709 78.0538 392.865 95.5675C393.676 96.8413 393.265 98.5256 391.975 99.3113C390.685 100.097 389.005 99.6865 388.193 98.4134C377.49 81.6407 363.107 67.5099 346.122 57.102C329.136 46.6941 310.015 40.295 290.212 38.3745C288.709 38.2287 287.58 36.9181 287.694 35.4122Z" fill="#83D1FF"/>
<path d="M395.844 105.337C397.182 104.636 398.837 105.152 399.51 106.504C400.173 107.834 400.813 109.174 401.432 110.525C402.061 111.898 401.422 113.51 400.037 114.111C398.652 114.712 397.044 114.075 396.414 112.703C395.849 111.473 395.266 110.252 394.664 109.04C393.991 107.688 394.506 106.037 395.844 105.337Z" fill="#83D1FF"/>
<defs>
<linearGradient id="paint0_linear_672_1266" x1="409.348" y1="229.259" x2="-29.4638" y2="261.064" gradientUnits="userSpaceOnUse">
<stop stop-color="#008ADB"/>
<stop offset="1" stop-color="#0E85CA" stop-opacity="0.42"/>
</linearGradient>
</defs>
</svg>
